<?xml version="1.0" standalone="no"?>
<!DOCTYPE svg PUBLIC "-//W3C//DTD SVG 20010904//EN"
 "http://www.w3.org/TR/2001/REC-SVG-20010904/DTD/svg10.dtd">
<svg version="1.0" xmlns="http://www.w3.org/2000/svg"
 width="512.000000pt" height="512.000000pt" viewBox="0 0 512.000000 512.000000"
 preserveAspectRatio="xMidYMid meet">

<g transform="translate(0.000000,512.000000) scale(0.100000,-0.100000)"
fill="#000000" stroke="none">
<path d="M2416 4576 c-32 -14 -77 -40 -100 -58 -128 -101 -2100 -1759 -2144
-1802 -31 -30 -66 -78 -85 -116 -30 -60 -32 -72 -32 -170 0 -95 3 -111 28
-163 95 -192 335 -280 518 -189 l39 19 0 -231 c0 -257 4 -276 60 -276 59 0 60
3 60 315 l0 284 838 702 c460 387 849 713 864 725 35 28 95 38 144 25 29 -8
252 -190 894 -729 l855 -718 0 -630 0 -629 -23 -58 c-31 -76 -113 -164 -189
-202 l-58 -30 -607 -3 -608 -3 0 240 0 240 378 3 c360 3 379 4 422 24 57 27
117 87 144 144 20 43 21 61 24 494 3 498 1 516 -61 597 -17 23 -57 56 -87 73
l-55 31 -1075 0 -1075 0 -55 -31 c-30 -17 -70 -50 -87 -73 -62 -81 -64 -99
-61 -597 3 -433 4 -451 24 -495 27 -58 85 -116 143 -143 44 -20 63 -21 424
-24 l377 -3 0 -240 0 -240 -607 3 -608 3 -61 32 c-78 41 -156 125 -185 201
-17 45 -23 85 -26 192 -6 145 -14 170 -60 170 -12 0 -32 -9 -43 -20 -18 -18
-20 -33 -20 -128 0 -140 13 -210 57 -299 61 -124 190 -228 330 -265 38 -10
369 -13 1543 -13 l1495 0 65 23 c88 32 149 72 214 143 63 68 110 158 125 243
7 38 11 260 11 617 l0 557 61 -25 c85 -34 217 -31 299 8 85 40 144 99 187 187
36 71 38 82 38 166 -1 111 -26 182 -89 253 -24 26 -523 451 -1109 943 -772
648 -1085 905 -1133 930 -61 32 -75 35 -163 38 -83 2 -104 -1 -155 -22z m236
-112 c64 -21 2222 -1830 2255 -1890 78 -138 32 -300 -106 -371 -72 -38 -138
-43 -212 -18 -34 12 -258 194 -949 775 -548 460 -925 770 -957 786 -76 38
-175 37 -249 -3 -31 -16 -440 -352 -935 -768 -484 -407 -904 -753 -932 -770
-100 -58 -247 -32 -322 57 -88 104 -87 263 3 355 21 21 273 236 562 479 289
242 770 646 1069 897 372 312 557 461 585 471 55 19 132 20 188 0z m978 -2117
c30 -16 51 -37 67 -67 23 -43 23 -44 23 -464 0 -245 -4 -436 -10 -456 -12 -45
-65 -97 -111 -110 -46 -14 -2031 -13 -2079 0 -41 11 -94 61 -109 103 -7 18
-11 179 -11 456 0 427 0 428 23 471 16 30 37 51 67 67 l43 23 1027 0 1027 0
43 -23z m-880 -1467 l0 -240 -190 0 -190 0 0 240 0 240 190 0 190 0 0 -240z"/>
<path d="M1546 2155 c-14 -15 -16 -54 -16 -350 0 -334 0 -334 22 -349 30 -21
54 -20 78 4 18 18 20 33 20 146 l0 125 116 -141 c64 -78 122 -144 130 -147 41
-16 92 34 77 74 -4 10 -49 70 -100 133 l-94 115 46 7 c101 15 160 87 160 198
0 78 -26 132 -82 170 -34 23 -46 25 -188 28 -131 3 -155 1 -169 -13z m303
-131 c12 -15 21 -39 21 -54 0 -15 -9 -39 -21 -54 -19 -25 -25 -26 -110 -26
l-89 0 0 80 0 80 89 0 c85 0 91 -1 110 -26z"/>
<path d="M2072 2150 c-11 -11 -24 -35 -27 -52 -3 -18 -5 -163 -3 -321 l3 -289
28 -24 c27 -23 34 -24 186 -24 140 0 160 2 174 18 22 24 21 65 -1 85 -15 14
-41 17 -140 17 l-122 0 0 95 0 95 124 0 c138 0 156 7 156 60 0 50 -28 60 -162
60 l-118 0 0 90 0 90 118 0 c133 0 162 11 162 59 0 55 -20 61 -196 61 -146 0
-162 -2 -182 -20z"/>
<path d="M2581 2144 c-20 -26 -21 -38 -21 -345 0 -306 1 -320 20 -339 25 -25
62 -26 83 -2 15 16 17 48 17 237 0 133 4 215 9 210 5 -6 64 -104 130 -220 67
-115 131 -218 142 -227 29 -25 55 -22 84 7 l25 24 0 318 c0 351 -2 363 -59
363 -56 0 -60 -15 -63 -249 l-3 -212 -118 205 c-65 112 -127 216 -138 230 -28
36 -80 36 -108 0z"/>
<path d="M3147 2152 c-10 -10 -17 -30 -17 -45 0 -39 34 -57 107 -57 l63 0 0
-289 c0 -288 0 -290 22 -305 30 -21 54 -20 78 4 19 19 20 33 20 305 l0 285 63
0 c75 0 107 18 107 59 0 57 -17 61 -232 61 -176 0 -196 -2 -211 -18z"/>
<path d="M660 1500 c-16 -16 -20 -33 -20 -83 0 -75 18 -107 59 -107 46 0 61
27 61 108 0 62 -3 73 -22 86 -30 21 -54 20 -78 -4z"/>
</g>
</svg>
